<svg width="72" height="72" viewBox="0 0 72 72" fill="none" xmlns="http://www.w3.org/2000/svg">
<rect width="72" height="72" fill="#F5F5F5"/>
<g clip-path="url(#clip0_0_1)">
<rect width="72" height="72" fill="white"/>
<path fill-rule="evenodd" clip-rule="evenodd" d="M72 36C72 52.9706 72 61.4559 66.728 66.728C61.4559 72 52.9706 72 36 72C19.0296 72 10.544 72 5.2722 66.728C0 61.4559 0 52.9706 0 36C0 19.0296 0 10.544 5.2722 5.2722C10.544 0 19.0296 0 36 0C52.9706 0 61.4559 0 66.728 5.2722C72 10.544 72 19.0296 72 36ZM36 15.3C34.5089 15.3 33.3 16.5089 33.3 18V36.6815L27.1091 30.4909C26.0547 29.4365 24.3453 29.4365 23.2909 30.4909C22.2365 31.5453 22.2365 33.2547 23.2909 34.3091L34.0909 45.1091C34.5971 45.6156 35.2839 45.9 36 45.9C36.7161 45.9 37.4029 45.6156 37.9091 45.1091L48.7091 34.3091C49.7636 33.2547 49.7636 31.5453 48.7091 30.4909C47.6548 29.4365 45.9452 29.4365 44.8909 30.4909L38.7 36.6815V18C38.7 16.5089 37.4911 15.3 36 15.3ZM50.4 51.3C51.8912 51.3 53.1 52.5088 53.1 54C53.1 55.4912 51.8912 56.7 50.4 56.7H21.6C20.1089 56.7 18.9 55.4912 18.9 54C18.9 52.5088 20.1089 51.3 21.6 51.3H50.4Z" fill="url(#paint0_linear_0_1)"/>
</g>
<defs>
<linearGradient id="paint0_linear_0_1" x1="36" y1="72" x2="36" y2="0" gradientUnits="userSpaceOnUse">
<stop stop-color="#FFA726"/>
<stop offset="1" stop-color="#E91E63"/>
</linearGradient>
<clipPath id="clip0_0_1">
<rect width="72" height="72" fill="white"/>
</clipPath>
</defs>
</svg>
