<svg width="72" height="72" viewBox="0 0 72 72" fill="none" xmlns="http://www.w3.org/2000/svg">
<rect width="72" height="72" fill="#F5F5F5"/>
<g clip-path="url(#clip0_0_1)">
<rect width="72" height="72" fill="white"/>
<path d="M54 0H18C8.05887 0 0 8.05887 0 18V54C0 63.9411 8.05887 72 18 72H54C63.9411 72 72 63.9411 72 54V18C72 8.05887 63.9411 0 54 0Z" fill="url(#paint0_linear_0_1)"/>
<path d="M51.1364 14.7273H22.5C20.9185 14.7273 19.6364 16.0094 19.6364 17.5909C19.6364 19.1725 20.9185 20.4546 22.5 20.4546H51.1364C52.7179 20.4546 54 19.1725 54 17.5909C54 16.0094 52.7179 14.7273 51.1364 14.7273Z" fill="white"/>
<path d="M47.1939 46.923L29.6466 28.0674C28.6774 27.026 27.0476 26.9674 26.0063 27.9366C24.9649 28.9057 24.9063 30.5355 25.8754 31.5769L43.4228 50.4325C44.3919 51.4739 46.0218 51.5324 47.0631 50.5633C48.1045 49.5942 48.1631 47.9644 47.1939 46.923Z" fill="white"/>
<path d="M43.6503 29.613L24.7947 47.1604C23.7533 48.1295 23.6947 49.7594 24.6638 50.8007C25.6329 51.8421 27.2628 51.9007 28.3041 50.9315L47.1598 33.3842C48.2011 32.415 48.2597 30.7852 47.2906 29.7438C46.3215 28.7025 44.6917 28.6439 43.6503 29.613Z" fill="white"/>
</g>
<defs>
<linearGradient id="paint0_linear_0_1" x1="36" y1="0" x2="36" y2="72" gradientUnits="userSpaceOnUse">
<stop stop-color="#FFA726"/>
<stop offset="1" stop-color="#E91E63"/>
</linearGradient>
<clipPath id="clip0_0_1">
<rect width="72" height="72" fill="white"/>
</clipPath>
</defs>
</svg>
